<svg xmlns="http://www.w3.org/2000/svg" xmlns:xlink="http://www.w3.org/1999/xlink" width="500" zoomAndPan="magnify" viewBox="0 0 375 374.999991" height="500" preserveAspectRatio="xMidYMid meet" version="1.0"><defs><g/><clipPath id="id1"><path d="M 140 199 L 235 199 L 235 224.914062 L 140 224.914062 Z M 140 199 " clip-rule="nonzero"/></clipPath><clipPath id="id2"><path d="M 112.5 74.914062 L 262.5 74.914062 L 262.5 224.914062 L 112.5 224.914062 Z M 112.5 74.914062 " clip-rule="nonzero"/></clipPath><clipPath id="id3"><path d="M 171 218 L 191 218 L 191 224.914062 L 171 224.914062 Z M 171 218 " clip-rule="nonzero"/></clipPath></defs><g clip-path="url(#id1)"><path fill="#ffd241" d="M 140.582031 199.914062 L 234.332031 199.914062 L 234.332031 224.914062 L 140.582031 224.914062 Z M 140.582031 199.914062 " fill-opacity="1" fill-rule="nonzero"/></g><path fill="#ef4136" d="M 256.25 202.996094 C 259.332031 193.664062 259.332031 174.246094 259.332031 162.414062 C 259.332031 134.332031 231.25 131.164062 231.25 131.164062 L 143.75 131.164062 C 143.75 131.164062 115.667969 134.246094 115.667969 162.414062 C 115.667969 174.332031 126.082031 198.414062 134.417969 202.996094 Z M 256.25 202.996094 " fill-opacity="1" fill-rule="nonzero"/><path fill="#ffd285" d="M 137.5 209.246094 L 162.5 209.246094 C 165.917969 209.246094 168.75 212.082031 168.75 215.496094 C 168.75 218.914062 165.917969 221.746094 162.5 221.746094 L 137.5 221.746094 C 134.082031 221.746094 131.25 218.914062 131.25 215.496094 C 131.25 212.082031 134.082031 209.246094 137.5 209.246094 Z M 137.5 209.246094 " fill-opacity="1" fill-rule="nonzero"/><path fill="#be3c36" d="M 231.25 131.164062 C 231.25 131.164062 259.332031 134.246094 259.332031 162.414062 C 259.332031 190.582031 218.75 190.496094 218.75 190.496094 L 218.75 171.746094 C 218.75 171.746094 234.332031 168.664062 234.332031 156.164062 L 212.5 140.496094 C 212.5 140.496094 215.582031 131.164062 231.25 131.164062 Z M 231.25 131.164062 " fill-opacity="1" fill-rule="nonzero"/><path fill="#ffd285" d="M 212.5 140.496094 C 212.5 140.496094 218.75 143.582031 218.75 159.246094 L 218.75 202.996094 L 156.25 202.996094 L 156.25 159.246094 C 156.25 143.664062 162.5 140.496094 162.5 140.496094 C 162.5 140.496094 168.75 146.746094 187.5 146.746094 C 206.25 146.746094 212.5 140.496094 212.5 140.496094 Z M 212.5 140.496094 " fill-opacity="1" fill-rule="nonzero"/><path fill="#be3c36" d="M 146.832031 171.746094 L 153.082031 171.746094 C 160 171.746094 165.582031 177.332031 165.582031 184.246094 L 165.582031 209.246094 L 134.332031 209.246094 L 134.332031 184.246094 C 134.332031 177.414062 140 171.746094 146.832031 171.746094 Z M 146.832031 171.746094 " fill-opacity="1" fill-rule="nonzero"/><path fill="#efb175" d="M 218.75 171.746094 L 212.5 171.746094 C 209.082031 171.746094 206.25 174.582031 206.25 177.996094 L 206.25 187.414062 C 206.25 187.414062 206.25 196.746094 212.5 196.746094 L 218.75 196.746094 Z M 218.75 171.746094 " fill-opacity="1" fill-rule="nonzero"/><path fill="#efb175" d="M 231.25 106.164062 C 231.25 111.332031 230.167969 140.496094 225 140.496094 C 219.832031 140.496094 218.75 111.332031 218.75 106.164062 C 218.75 100.996094 219.832031 96.832031 225 96.832031 C 230.167969 96.832031 231.25 100.996094 231.25 106.164062 Z M 231.25 106.164062 " fill-opacity="1" fill-rule="nonzero"/><path fill="#efb175" d="M 143.75 106.164062 C 143.75 111.332031 144.832031 140.496094 150 140.496094 C 155.167969 140.496094 156.25 111.332031 156.25 106.164062 C 156.25 100.996094 155.167969 96.746094 150 96.746094 C 144.832031 96.746094 143.75 100.996094 143.75 106.164062 Z M 143.75 106.164062 " fill-opacity="1" fill-rule="nonzero"/><path fill="#ffd285" d="M 187.5 146.746094 C 206.25 146.746094 218.75 137.414062 218.75 124.914062 C 219.082031 118.496094 218 112.164062 215.667969 106.164062 C 215.582031 74.996094 187.5 78.164062 187.5 78.164062 C 187.5 78.164062 159.332031 74.996094 159.332031 106.246094 C 157 112.164062 155.917969 118.582031 156.25 124.996094 C 156.25 137.414062 168.75 146.746094 187.5 146.746094 Z M 187.5 146.746094 " fill-opacity="1" fill-rule="nonzero"/><path fill="#ef4136" d="M 187.5 93.664062 L 193.75 93.664062 L 193.75 99.914062 L 187.5 99.914062 Z M 187.5 93.664062 " fill-opacity="1" fill-rule="nonzero"/><path fill="#ffd285" d="M 143.75 159.246094 L 156.25 159.246094 C 159.667969 159.246094 162.5 162.082031 162.5 165.496094 C 162.5 168.914062 159.667969 171.746094 156.25 171.746094 L 143.75 171.746094 C 140.332031 171.746094 137.5 168.914062 137.5 165.496094 C 137.5 162.082031 140.332031 159.246094 143.75 159.246094 Z M 143.75 159.246094 " fill-opacity="1" fill-rule="nonzero"/><path fill="#ffd285" d="M 209.332031 190.496094 L 209.332031 221.746094 L 196.832031 221.746094 L 196.832031 190.496094 C 196.832031 187.082031 199.667969 184.246094 203.082031 184.246094 C 206.582031 184.246094 209.332031 187.082031 209.332031 190.496094 Z M 209.332031 190.496094 " fill-opacity="1" fill-rule="nonzero"/><path fill="#be3c36" d="M 209.332031 196.746094 L 240.582031 196.746094 C 247.5 196.746094 253.082031 202.332031 253.082031 209.246094 C 253.082031 216.164062 247.5 221.746094 240.582031 221.746094 L 209.332031 221.746094 Z M 209.332031 196.746094 " fill-opacity="1" fill-rule="nonzero"/><path fill="#000000" d="M 175 109.246094 C 177.082031 109.246094 178 109.582031 178.167969 109.832031 C 179 111.082031 179.75 112.332031 181.25 112.332031 C 183 112.332031 184.332031 110.914062 184.332031 109.246094 C 184.332031 108.996094 184.25 102.996094 175 102.996094 C 172.917969 102.996094 172 102.664062 171.832031 102.414062 C 171 101.164062 170.25 99.914062 168.75 99.914062 C 167 99.914062 165.667969 101.332031 165.667969 102.996094 C 165.582031 103.332031 165.75 109.246094 175 109.246094 Z M 175 109.246094 " fill-opacity="1" fill-rule="nonzero"/><path fill="#000000" d="M 193.75 112.414062 C 195.25 112.414062 196 111.082031 196.832031 109.914062 C 197 109.664062 197.917969 109.332031 200 109.332031 C 209.25 109.332031 209.332031 103.332031 209.332031 103.082031 C 209.332031 101.332031 207.917969 99.996094 206.25 99.996094 C 204.75 99.996094 204 101.332031 203.167969 102.496094 C 203 102.746094 202.082031 103.082031 200 103.082031 C 190.75 103.082031 190.667969 109.082031 190.667969 109.332031 C 190.582031 110.996094 192 112.414062 193.75 112.414062 Z M 193.75 112.414062 " fill-opacity="1" fill-rule="nonzero"/><path fill="#000000" d="M 207.667969 122.164062 C 206.167969 121.414062 204.25 121.996094 203.5 123.496094 C 202.167969 125.996094 199.75 127.746094 196.917969 127.996094 C 194.082031 127.664062 191.667969 125.996094 190.332031 123.496094 C 189.832031 122.414062 188.75 121.746094 187.582031 121.746094 C 186.417969 121.746094 185.332031 122.414062 184.832031 123.414062 C 183.5 125.914062 181.082031 127.664062 178.25 127.914062 C 175.417969 127.582031 173 125.914062 171.667969 123.414062 C 170.917969 121.832031 169 121.246094 167.5 121.996094 C 165.917969 122.746094 165.332031 124.664062 166.082031 126.164062 C 168.417969 130.832031 173.082031 133.832031 178.25 134.164062 C 181.832031 134.082031 185.167969 132.582031 187.582031 129.996094 C 190 132.582031 193.417969 134.164062 196.917969 134.164062 C 202.082031 133.832031 206.75 130.832031 209.082031 126.164062 C 209.832031 124.746094 209.167969 122.914062 207.667969 122.164062 Z M 207.667969 122.164062 " fill-opacity="1" fill-rule="nonzero"/><path fill="#000000" d="M 184.332031 93.664062 L 190.582031 93.664062 L 190.582031 99.914062 L 184.332031 99.914062 Z M 184.332031 93.664062 " fill-opacity="1" fill-rule="nonzero"/><g clip-path="url(#id2)"><path fill="#000000" d="M 259.332031 175.082031 C 261.417969 171.164062 262.5 166.832031 262.417969 162.414062 C 262.417969 135.582031 238.917969 129.414062 232.917969 128.246094 C 233.917969 120.914062 234.332031 113.496094 234.332031 106.164062 C 234.332031 97.832031 231.167969 93.664062 225 93.664062 C 222.167969 93.496094 219.5 94.746094 217.832031 97.082031 C 216.917969 91.246094 214 85.914062 209.582031 81.996094 C 201.082031 74.914062 187.5 74.914062 187.5 74.914062 C 187.5 74.914062 173.832031 74.914062 165.417969 81.914062 C 161 85.832031 158.082031 91.164062 157.167969 96.996094 C 155.5 94.664062 152.832031 93.414062 150 93.582031 C 143.75 93.582031 140.667969 97.746094 140.667969 106.082031 C 140.582031 113.496094 141.082031 120.832031 142.082031 128.164062 C 136 129.414062 112.5 135.582031 112.5 162.414062 C 112.5 174.746094 122.167969 193.996094 131.25 200.496094 L 131.25 208.582031 C 127.417969 211.996094 127.082031 217.914062 130.5 221.746094 C 132.25 223.746094 134.832031 224.914062 137.5 224.832031 L 162.5 224.832031 C 167.667969 224.832031 171.832031 220.664062 171.832031 215.496094 C 171.832031 212.832031 170.667969 210.246094 168.75 208.496094 L 168.75 206.082031 L 193.75 206.082031 L 193.75 221.664062 C 193.75 223.414062 195.167969 224.746094 196.832031 224.746094 L 240.582031 224.746094 C 249.25 224.746094 256.167969 217.746094 256.167969 209.164062 C 256.167969 208.582031 256.082031 207.914062 256 207.332031 C 257.25 205.496094 259.332031 200.832031 259.332031 190.414062 Z M 225 99.914062 C 226.5 99.914062 228.082031 99.914062 228.082031 106.164062 C 228.167969 116.082031 227.082031 125.996094 225 135.746094 C 222.832031 126.082031 221.832031 116.164062 221.917969 106.164062 C 221.832031 99.914062 223.5 99.914062 225 99.914062 Z M 187.5 82.332031 C 212.5 82.332031 212.582031 107.164062 212.832031 107.582031 C 214.917969 113.082031 215.917969 118.996094 215.667969 124.914062 C 215.667969 135.914062 204.082031 143.664062 187.582031 143.664062 C 171.082031 143.664062 159.332031 135.996094 159.332031 124.914062 C 159.082031 118.996094 160 113.082031 162.167969 107.582031 C 162.417969 107.164062 162.5 82.332031 187.5 82.332031 Z M 150 99.914062 C 151.5 99.914062 153.082031 99.914062 153.082031 106.164062 C 153.167969 116.082031 152.167969 125.996094 150 135.746094 C 147.832031 126.082031 146.832031 116.164062 146.917969 106.164062 C 146.832031 99.914062 148.5 99.914062 150 99.914062 Z M 118.75 162.414062 C 118.75 139.746094 138.832031 135.164062 143.25 134.414062 C 144.667969 139.832031 146.75 143.664062 150 143.664062 C 152.917969 143.664062 154.917969 140.582031 156.25 136.082031 C 157 137.332031 157.832031 138.496094 158.832031 139.496094 C 156.667969 141.746094 153.75 146.582031 153.167969 156.164062 L 143.75 156.164062 C 138.582031 156.164062 134.417969 160.332031 134.417969 165.496094 C 134.417969 167.996094 135.417969 170.414062 137.167969 172.164062 C 133.5 175.082031 131.332031 179.582031 131.25 184.246094 L 131.25 191.996094 C 124.917969 184.746094 118.75 170.914062 118.75 162.414062 Z M 143.75 168.664062 C 142 168.664062 140.667969 167.246094 140.667969 165.582031 C 140.667969 163.832031 142.082031 162.496094 143.75 162.496094 L 156.25 162.496094 C 158 162.496094 159.332031 163.914062 159.332031 165.582031 C 159.332031 167.332031 157.917969 168.664062 156.25 168.664062 Z M 162.5 218.664062 L 162.5 215.582031 C 162.5 213.832031 161.082031 212.496094 159.417969 212.496094 C 157.667969 212.496094 156.332031 213.914062 156.332031 215.582031 L 156.332031 218.664062 L 153.25 218.664062 L 153.25 215.582031 C 153.25 213.832031 151.832031 212.496094 150.167969 212.496094 C 148.417969 212.496094 147.082031 213.914062 147.082031 215.582031 L 147.082031 218.664062 L 144 218.664062 L 144 215.582031 C 144 213.832031 142.582031 212.496094 140.917969 212.496094 C 139.25 212.496094 137.832031 213.914062 137.832031 215.582031 L 137.832031 218.664062 C 136.082031 218.664062 134.75 217.246094 134.75 215.582031 C 134.75 213.914062 136.167969 212.496094 137.832031 212.496094 L 162.832031 212.496094 C 164.582031 212.496094 165.917969 213.914062 165.917969 215.582031 C 165.917969 217.246094 164.25 218.664062 162.5 218.664062 Z M 137.5 206.164062 L 137.5 184.332031 C 137.5 179.164062 141.667969 174.996094 146.832031 174.996094 L 153.082031 174.996094 C 158.25 174.996094 162.417969 179.164062 162.417969 184.332031 L 162.417969 206.164062 Z M 162.832031 172.164062 C 166.5 168.496094 166.5 162.582031 162.917969 158.996094 C 161.917969 157.996094 160.75 157.246094 159.417969 156.746094 C 159.832031 147.746094 162.667969 144.414062 163.667969 143.582031 C 170.832031 147.996094 179.082031 150.164062 187.5 149.914062 C 195.917969 150.164062 204.167969 147.996094 211.332031 143.582031 C 212.417969 144.582031 215.582031 148.414062 215.582031 159.332031 C 215.582031 161.082031 217 162.414062 218.667969 162.414062 C 220.417969 162.414062 221.75 160.996094 221.75 159.332031 C 221.75 147.664062 218.417969 142.082031 216 139.582031 C 217 138.496094 217.832031 137.332031 218.582031 136.164062 C 220 140.664062 222 143.746094 224.832031 143.746094 C 228.082031 143.746094 230.167969 139.914062 231.582031 134.496094 C 236 135.246094 256.082031 139.832031 256.082031 162.496094 C 256.082031 172.664062 250 179.914062 238 184.082031 C 232.75 185.832031 227.25 186.914062 221.667969 187.332031 L 221.667969 174.246094 C 228.167969 172.246094 237.25 166.664062 237.25 156.246094 C 237.25 154.496094 235.832031 153.164062 234.167969 153.164062 C 232.417969 153.164062 231.082031 154.582031 231.082031 156.246094 C 231.082031 165.332031 220.167969 168.332031 218.25 168.746094 L 212.5 168.746094 C 207.332031 168.746094 203.167969 172.914062 203.167969 178.082031 L 203.167969 181.164062 C 198 181.164062 193.832031 185.332031 193.832031 190.496094 L 193.832031 199.914062 L 168.832031 199.914062 L 168.832031 184.332031 C 168.75 179.582031 166.582031 175.082031 162.832031 172.164062 Z M 200 215.496094 L 203.082031 215.496094 C 204.832031 215.496094 206.167969 214.082031 206.167969 212.414062 C 206.167969 210.664062 204.75 209.332031 203.082031 209.332031 L 200 209.332031 L 200 206.246094 L 203.082031 206.246094 C 204.832031 206.246094 206.167969 204.832031 206.167969 203.164062 C 206.167969 201.414062 204.75 200.082031 203.082031 200.082031 L 200 200.082031 L 200 196.996094 L 203.082031 196.996094 C 204.832031 196.996094 206.167969 195.582031 206.167969 193.914062 C 206.167969 192.246094 204.75 190.832031 203.082031 190.832031 L 200 190.832031 C 200 189.082031 201.417969 187.746094 203.082031 187.746094 C 204.832031 187.746094 206.167969 189.164062 206.167969 190.832031 L 206.167969 218.914062 L 200 218.914062 Z M 240.582031 218.664062 L 212.5 218.664062 L 212.5 199.914062 L 240.582031 199.914062 C 245.75 199.914062 249.917969 204.082031 249.917969 209.246094 C 249.917969 214.414062 245.832031 218.664062 240.582031 218.664062 Z M 240.582031 193.664062 L 212.5 193.664062 L 212.5 190.582031 C 212.5 187.914062 211.332031 185.414062 209.417969 183.664062 L 209.417969 178.082031 C 209.417969 176.332031 210.832031 174.996094 212.5 174.996094 L 215.582031 174.996094 L 215.582031 190.582031 C 215.582031 192.332031 217 193.664062 218.667969 193.664062 C 228.25 193.664062 243.332031 190.996094 253 182.746094 L 253 190.582031 C 253 193.496094 252.832031 196.332031 252.332031 199.246094 C 249.5 195.664062 245.167969 193.664062 240.582031 193.664062 Z M 240.582031 193.664062 " fill-opacity="1" fill-rule="nonzero"/></g><path fill="#000000" d="M 178.082031 171.746094 C 181.667969 171.664062 185 170.164062 187.417969 167.582031 C 189.832031 170.164062 193.25 171.746094 196.75 171.746094 C 201 171.914062 205.167969 170.496094 208.332031 167.746094 C 209.5 166.582031 209.5 164.582031 208.332031 163.414062 C 207.167969 162.164062 205.167969 162.164062 203.917969 163.332031 C 201.832031 164.914062 199.332031 165.746094 196.75 165.582031 C 193.917969 165.246094 191.5 163.582031 190.167969 161.082031 C 189.667969 159.996094 188.582031 159.332031 187.417969 159.332031 C 186.25 159.332031 185.167969 159.996094 184.667969 160.996094 C 183.332031 163.496094 180.917969 165.246094 178.082031 165.496094 C 175.5 165.664062 173 164.832031 170.917969 163.246094 C 169.667969 161.996094 167.75 161.996094 166.5 163.246094 C 165.25 164.496094 165.25 166.414062 166.5 167.664062 C 169.75 170.496094 173.917969 171.996094 178.082031 171.746094 Z M 178.082031 171.746094 " fill-opacity="1" fill-rule="nonzero"/><g clip-path="url(#id3)"><path fill="#000000" d="M 187.5 218.664062 L 175 218.664062 C 173.25 218.664062 171.917969 220.082031 171.917969 221.746094 C 171.917969 223.414062 173.332031 224.832031 175 224.832031 L 187.5 224.832031 C 189.25 224.832031 190.582031 223.414062 190.582031 221.746094 C 190.582031 220.082031 189.25 218.664062 187.5 218.664062 Z M 187.5 218.664062 " fill-opacity="1" fill-rule="nonzero"/></g><g fill="#ff914d" fill-opacity="1"><g transform="translate(97.59177, 291.544668)"><g><path d="M 3.097656 0 L 19.199219 0 L 19.199219 -11.953125 L 22.726562 -15.851562 L 29.105469 0 L 48.488281 0 L 33.75 -27.992188 L 48.488281 -44.585938 L 29.105469 -44.585938 L 19.320312 -31.210938 L 19.199219 -31.273438 L 19.199219 -44.585938 L 3.097656 -44.585938 Z M 3.097656 0 "/></g></g></g><g fill="#ff914d" fill-opacity="1"><g transform="translate(140.812277, 291.544668)"><g><path d="M 11.148438 0.621094 C 15.792969 0.621094 19.753906 -2.230469 21.675781 -6.996094 L 21.738281 -6.996094 L 24.152344 0 L 35.917969 0 L 35.917969 -32.203125 L 21.675781 -32.203125 L 21.675781 -14.863281 C 21.675781 -12.507812 20.496094 -11.148438 18.578125 -11.148438 C 17.03125 -11.148438 16.101562 -12.199219 16.101562 -13.996094 L 16.101562 -32.203125 L 1.859375 -32.203125 L 1.859375 -8.667969 C 1.859375 -2.847656 5.324219 0.621094 11.148438 0.621094 Z M 11.148438 0.621094 "/></g></g></g><g fill="#ff914d" fill-opacity="1"><g transform="translate(173.320313, 291.544668)"><g><path d="M 26.007812 0.621094 C 33.441406 0.621094 38.394531 -5.699219 38.394531 -16.101562 C 38.394531 -26.503906 33.441406 -32.820312 26.007812 -32.820312 C 21.425781 -32.820312 17.957031 -30.34375 16.164062 -25.203125 L 16.101562 -25.203125 L 16.101562 -46.445312 L 1.859375 -46.445312 L 1.859375 0 L 13.625 0 L 16.039062 -6.8125 L 16.101562 -6.8125 C 17.835938 -1.796875 21.304688 0.621094 26.007812 0.621094 Z M 19.816406 -11.148438 C 17.277344 -11.148438 15.480469 -13.253906 15.480469 -16.101562 C 15.480469 -18.949219 17.277344 -21.054688 19.816406 -21.054688 C 22.355469 -21.054688 24.152344 -18.949219 24.152344 -16.101562 C 24.152344 -13.253906 22.355469 -11.148438 19.816406 -11.148438 Z M 19.816406 -11.148438 "/></g></g></g><g fill="#ff914d" fill-opacity="1"><g transform="translate(207.376389, 291.544668)"><g><path d="M 21.675781 1.238281 C 28.238281 1.238281 34.308594 -0.992188 37.28125 -4.398438 L 30.652344 -11.148438 C 28.609375 -9.414062 25.328125 -8.359375 22.355469 -8.359375 C 18.640625 -8.359375 15.976562 -9.785156 15.605469 -12.386719 L 36.042969 -12.386719 C 36.539062 -13.746094 36.847656 -15.851562 36.847656 -17.773438 C 36.847656 -27.25 29.910156 -33.441406 19.257812 -33.441406 C 8.113281 -33.441406 0.867188 -26.566406 0.929688 -16.101562 C 0.929688 -5.636719 9.289062 1.238281 21.675781 1.238281 Z M 15.421875 -19.199219 C 15.605469 -22.171875 17.152344 -24.152344 19.257812 -24.152344 C 21.304688 -24.152344 22.605469 -22.171875 22.605469 -19.199219 Z M 15.421875 -19.199219 "/></g></g></g><g fill="#ff914d" fill-opacity="1"><g transform="translate(240.317871, 291.544668)"><g><path d="M 21.703125 -24.90625 C 21.421875 -22.226562 20.367188 -20.09375 18.546875 -18.5 C 16.722656 -16.90625 14.128906 -15.859375 10.765625 -15.359375 L 23.859375 0 L 17.5 0 L 4.4375 -15.265625 L 5.046875 -19.6875 L 7.828125 -19.6875 C 9.921875 -19.6875 11.523438 -19.859375 12.640625 -20.203125 C 13.765625 -20.554688 14.660156 -21.128906 15.328125 -21.921875 C 15.992188 -22.722656 16.4375 -23.71875 16.65625 -24.90625 L 4.4375 -24.90625 L 4.4375 -29.328125 L 16.59375 -29.328125 C 16.375 -30.398438 15.941406 -31.3125 15.296875 -32.0625 C 14.648438 -32.820312 13.828125 -33.351562 12.828125 -33.65625 C 11.835938 -33.957031 10.414062 -34.109375 8.5625 -34.109375 L 4.4375 -34.109375 L 4.4375 -38.515625 L 30.5625 -38.515625 L 30.5625 -34.109375 L 18.953125 -34.109375 C 20.390625 -33.054688 21.296875 -31.460938 21.671875 -29.328125 L 30.5625 -29.328125 L 30.5625 -24.90625 Z M 21.703125 -24.90625 "/></g></g></g><g fill="#ffde59" fill-opacity="1"><g transform="translate(99.081378, 290.718965)"><g><path d="M 3.097656 0 L 19.199219 0 L 19.199219 -11.953125 L 22.726562 -15.851562 L 29.105469 0 L 48.488281 0 L 33.75 -27.992188 L 48.488281 -44.585938 L 29.105469 -44.585938 L 19.320312 -31.210938 L 19.199219 -31.273438 L 19.199219 -44.585938 L 3.097656 -44.585938 Z M 3.097656 0 "/></g></g></g><g fill="#ffde59" fill-opacity="1"><g transform="translate(142.301885, 290.718965)"><g><path d="M 11.148438 0.621094 C 15.792969 0.621094 19.753906 -2.230469 21.675781 -6.996094 L 21.738281 -6.996094 L 24.152344 0 L 35.917969 0 L 35.917969 -32.203125 L 21.675781 -32.203125 L 21.675781 -14.863281 C 21.675781 -12.507812 20.496094 -11.148438 18.578125 -11.148438 C 17.03125 -11.148438 16.101562 -12.199219 16.101562 -13.996094 L 16.101562 -32.203125 L 1.859375 -32.203125 L 1.859375 -8.667969 C 1.859375 -2.847656 5.324219 0.621094 11.148438 0.621094 Z M 11.148438 0.621094 "/></g></g></g><g fill="#ffde59" fill-opacity="1"><g transform="translate(174.809921, 290.718965)"><g><path d="M 26.007812 0.621094 C 33.441406 0.621094 38.394531 -5.699219 38.394531 -16.101562 C 38.394531 -26.503906 33.441406 -32.820312 26.007812 -32.820312 C 21.425781 -32.820312 17.957031 -30.34375 16.164062 -25.203125 L 16.101562 -25.203125 L 16.101562 -46.445312 L 1.859375 -46.445312 L 1.859375 0 L 13.625 0 L 16.039062 -6.8125 L 16.101562 -6.8125 C 17.835938 -1.796875 21.304688 0.621094 26.007812 0.621094 Z M 19.816406 -11.148438 C 17.277344 -11.148438 15.480469 -13.253906 15.480469 -16.101562 C 15.480469 -18.949219 17.277344 -21.054688 19.816406 -21.054688 C 22.355469 -21.054688 24.152344 -18.949219 24.152344 -16.101562 C 24.152344 -13.253906 22.355469 -11.148438 19.816406 -11.148438 Z M 19.816406 -11.148438 "/></g></g></g><g fill="#ffde59" fill-opacity="1"><g transform="translate(208.865997, 290.718965)"><g><path d="M 21.675781 1.238281 C 28.238281 1.238281 34.308594 -0.992188 37.28125 -4.398438 L 30.652344 -11.148438 C 28.609375 -9.414062 25.328125 -8.359375 22.355469 -8.359375 C 18.640625 -8.359375 15.976562 -9.785156 15.605469 -12.386719 L 36.042969 -12.386719 C 36.539062 -13.746094 36.847656 -15.851562 36.847656 -17.773438 C 36.847656 -27.25 29.910156 -33.441406 19.257812 -33.441406 C 8.113281 -33.441406 0.867188 -26.566406 0.929688 -16.101562 C 0.929688 -5.636719 9.289062 1.238281 21.675781 1.238281 Z M 15.421875 -19.199219 C 15.605469 -22.171875 17.152344 -24.152344 19.257812 -24.152344 C 21.304688 -24.152344 22.605469 -22.171875 22.605469 -19.199219 Z M 15.421875 -19.199219 "/></g></g></g><g fill="#ffde59" fill-opacity="1"><g transform="translate(241.807479, 290.718965)"><g><path d="M 21.703125 -24.90625 C 21.421875 -22.226562 20.367188 -20.09375 18.546875 -18.5 C 16.722656 -16.90625 14.128906 -15.859375 10.765625 -15.359375 L 23.859375 0 L 17.5 0 L 4.4375 -15.265625 L 5.046875 -19.6875 L 7.828125 -19.6875 C 9.921875 -19.6875 11.523438 -19.859375 12.640625 -20.203125 C 13.765625 -20.554688 14.660156 -21.128906 15.328125 -21.921875 C 15.992188 -22.722656 16.4375 -23.71875 16.65625 -24.90625 L 4.4375 -24.90625 L 4.4375 -29.328125 L 16.59375 -29.328125 C 16.375 -30.398438 15.941406 -31.3125 15.296875 -32.0625 C 14.648438 -32.820312 13.828125 -33.351562 12.828125 -33.65625 C 11.835938 -33.957031 10.414062 -34.109375 8.5625 -34.109375 L 4.4375 -34.109375 L 4.4375 -38.515625 L 30.5625 -38.515625 L 30.5625 -34.109375 L 18.953125 -34.109375 C 20.390625 -33.054688 21.296875 -31.460938 21.671875 -29.328125 L 30.5625 -29.328125 L 30.5625 -24.90625 Z M 21.703125 -24.90625 "/></g></g></g></svg>